<mxfile host="app.diagrams.net" modified="2023-03-26T22:09:00.082Z" agent="Mozilla/5.0 (Windows NT 10.0; Win64; x64) AppleWebKit/537.36 (KHTML, like Gecko) Chrome/111.0.0.0 Safari/537.36" version="21.1.1" etag="-Lya5Fneopw-cG-Z0-44" type="github">
  <diagram name="Страница 1" id="6I5gkxSF-c_AV9SVrg6M">
    <mxGraphModel>
      <root>
        <mxCell id="0" />
        <mxCell id="1" parent="0" />
      </root>
    </mxGraphModel>
  </diagram>
</mxfile>
